<svg width="25" height="12" viewBox="0 0 25 12" fill="none" xmlns="http://www.w3.org/2000/svg">
<path opacity="0.35" d="M0.500244 2.99992C0.500244 1.8033 1.47029 0.833252 2.66691 0.833252H19.3336C20.5302 0.833252 21.5002 1.8033 21.5002 2.99992V8.99992C21.5002 10.1965 20.5302 11.1666 19.3336 11.1666H2.66691C1.47029 11.1666 0.500244 10.1965 0.500244 8.99992V2.99992Z" stroke="#0D1B34"/>
<path opacity="0.4" d="M23.0002 3.99991V7.99991C23.805 7.66113 24.3283 6.87304 24.3283 5.99991C24.3283 5.12678 23.805 4.33868 23.0002 3.99991Z" fill="#0D1B34"/>
<path d="M2.00024 3.43325C2.00024 2.82574 2.49273 2.33325 3.10024 2.33325H18.9002C19.5078 2.33325 20.0002 2.82574 20.0002 3.43325V8.56658C20.0002 9.1741 19.5078 9.66659 18.9002 9.66659H3.10024C2.49273 9.66659 2.00024 9.1741 2.00024 8.56659V3.43325Z" fill="#0D1B34"/>
</svg>
